<svg width="518" height="615" viewBox="0 0 518 615" fill="none" xmlns="http://www.w3.org/2000/svg">
<path fill-rule="evenodd" clip-rule="evenodd" d="M200.514 303.626C282.962 300.835 347.538 231.735 344.747 149.286C341.956 66.8377 272.855 2.26252 190.407 5.05343C107.959 7.84434 43.3833 76.9445 46.1742 159.393C46.1742 159.393 46.1742 159.394 46.1742 159.394L5.05342 160.786C13.4455 197.195 48.7434 245.076 72.1233 265.015C105.426 293.416 150.932 307.044 196.417 303.709C197.779 303.7 199.145 303.672 200.514 303.626Z" fill="#FFD980"/>
<path fill-rule="evenodd" clip-rule="evenodd" d="M297.034 607.617C206.442 604.55 135.488 528.624 138.555 438.032C141.622 347.44 217.547 276.486 308.14 279.553C398.732 282.619 469.686 358.545 466.619 449.137C466.619 449.137 466.619 449.138 466.619 449.138L511.802 450.667C502.581 490.673 463.796 543.283 438.107 565.192C401.515 596.398 351.515 611.373 301.536 607.708C300.04 607.698 298.539 607.667 297.034 607.617Z" fill="#ECCDF6"/>
</svg>
