<svg width="215" height="44" viewBox="0 0 215 44" fill="none" xmlns="http://www.w3.org/2000/svg">
<path fill-rule="evenodd" clip-rule="evenodd" d="M21.1858 38.6059C30.3595 38.6059 37.7963 31.1691 37.7963 21.9953C37.7963 12.8216 30.3595 5.38483 21.1858 5.38483C12.0121 5.38483 4.57544 12.8214 4.57524 21.995L0 21.995C0.795713 26.073 4.53855 31.5272 7.06195 33.8312C10.6546 37.1115 15.6578 38.7972 20.7232 38.5995C20.8769 38.6037 21.0311 38.6059 21.1858 38.6059Z" fill="white"/>
<path d="M55.6686 35.4491C53.922 35.4491 52.3626 35.025 50.9903 34.1766C49.618 33.3283 48.5326 32.1681 47.7342 30.696C46.9358 29.2239 46.5366 27.5522 46.5366 25.6808C46.5366 23.8095 46.9358 22.1503 47.7342 20.7031C48.5326 19.231 49.618 18.0833 50.9903 17.2599C52.3626 16.4116 53.922 15.9874 55.6686 15.9874C57.0658 15.9874 58.2884 16.2494 59.3364 16.7734C60.3843 17.2973 61.2326 18.0334 61.8814 18.9815V8.05303H66.6719V35H62.4053L61.8814 32.3427C61.2825 33.1661 60.4841 33.8897 59.4861 34.5135C58.513 35.1372 57.2405 35.4491 55.6686 35.4491ZM56.6791 31.2574C58.226 31.2574 59.4861 30.7459 60.4592 29.7229C61.4572 28.6749 61.9562 27.3401 61.9562 25.7183C61.9562 24.0965 61.4572 22.7741 60.4592 21.7511C59.4861 20.7031 58.226 20.1792 56.6791 20.1792C55.1571 20.1792 53.8971 20.6907 52.899 21.7136C51.901 22.7366 51.402 24.059 51.402 25.6808C51.402 27.3026 51.901 28.6375 52.899 29.6855C53.8971 30.7334 55.1571 31.2574 56.6791 31.2574ZM80.57 35.4491C78.6986 35.4491 77.0394 35.0499 75.5923 34.2515C74.1451 33.453 73.0098 32.3303 72.1865 30.8831C71.3631 29.436 70.9514 27.7642 70.9514 25.868C70.9514 23.9468 71.3506 22.2376 72.149 20.7406C72.9724 19.2435 74.0952 18.0833 75.5174 17.2599C76.9646 16.4116 78.6612 15.9874 80.6074 15.9874C82.4288 15.9874 84.0381 16.3866 85.4354 17.1851C86.8326 17.9835 87.918 19.0813 88.6915 20.4786C89.4899 21.8509 89.8891 23.3854 89.8891 25.082C89.8891 25.3565 89.8766 25.6434 89.8517 25.9428C89.8517 26.2422 89.8392 26.5541 89.8143 26.8785H75.7045C75.8043 28.3256 76.3034 29.4609 77.2016 30.2843C78.1248 31.1077 79.2351 31.5194 80.5325 31.5194C81.5056 31.5194 82.3165 31.3073 82.9652 30.8831C83.6389 30.434 84.1379 29.8601 84.4623 29.1615H89.3277C88.9784 30.3342 88.3921 31.4071 87.5687 32.3802C86.7703 33.3283 85.7722 34.0768 84.5746 34.6257C83.4019 35.1747 82.067 35.4491 80.57 35.4491ZM80.6074 19.8798C79.4347 19.8798 78.3992 20.2166 77.501 20.8903C76.6028 21.539 76.0289 22.537 75.7794 23.8844H85.0237C84.9488 22.6618 84.4997 21.6887 83.6763 20.9651C82.853 20.2415 81.83 19.8798 80.6074 19.8798ZM93.9183 43.2338V16.4365H98.1849L98.7089 19.0938C99.3077 18.2704 100.094 17.5468 101.067 16.9231C102.065 16.2993 103.35 15.9874 104.922 15.9874C106.668 15.9874 108.228 16.4116 109.6 17.2599C110.972 18.1082 112.058 19.2685 112.856 20.7406C113.654 22.2127 114.054 23.8844 114.054 25.7557C114.054 27.627 113.654 29.2987 112.856 30.7708C112.058 32.218 110.972 33.3657 109.6 34.214C108.228 35.0374 106.668 35.4491 104.922 35.4491C103.524 35.4491 102.302 35.1871 101.254 34.6632C100.206 34.1392 99.3576 33.4031 98.7089 32.455V43.2338H93.9183ZM103.911 31.2574C105.433 31.2574 106.693 30.7459 107.691 29.7229C108.689 28.6999 109.188 27.3775 109.188 25.7557C109.188 24.1339 108.689 22.799 107.691 21.7511C106.693 20.7031 105.433 20.1792 103.911 20.1792C102.364 20.1792 101.092 20.7031 100.094 21.7511C99.1206 22.7741 98.634 24.0965 98.634 25.7183C98.634 27.3401 99.1206 28.6749 100.094 29.7229C101.092 30.7459 102.364 31.2574 103.911 31.2574ZM125.294 35.4491C122.974 35.4491 121.178 34.7255 119.905 33.2784C118.658 31.8312 118.034 29.7104 118.034 26.9159V16.4365H122.787V26.4668C122.787 28.0637 123.111 29.2862 123.76 30.1346C124.409 30.9829 125.432 31.4071 126.829 31.4071C128.151 31.4071 129.237 30.933 130.085 29.9849C130.958 29.0367 131.395 27.7143 131.395 26.0177V16.4365H136.186V35H131.956L131.582 31.8562C131.008 32.954 130.172 33.8273 129.075 34.476C128.002 35.1248 126.742 35.4491 125.294 35.4491ZM152.107 35.4491C150.709 35.4491 149.487 35.1871 148.439 34.6632C147.391 34.1392 146.543 33.4031 145.894 32.455L145.37 35H141.103V8.05303H145.894V19.0938C146.493 18.2704 147.279 17.5468 148.252 16.9231C149.25 16.2993 150.535 15.9874 152.107 15.9874C153.853 15.9874 155.413 16.4116 156.785 17.2599C158.157 18.1082 159.243 19.2685 160.041 20.7406C160.839 22.2127 161.239 23.8844 161.239 25.7557C161.239 27.627 160.839 29.2987 160.041 30.7708C159.243 32.218 158.157 33.3657 156.785 34.214C155.413 35.0374 153.853 35.4491 152.107 35.4491ZM151.096 31.2574C152.618 31.2574 153.878 30.7459 154.876 29.7229C155.874 28.6999 156.373 27.3775 156.373 25.7557C156.373 24.1339 155.874 22.799 154.876 21.7511C153.878 20.7031 152.618 20.1792 151.096 20.1792C149.549 20.1792 148.277 20.7031 147.279 21.7511C146.306 22.7741 145.819 24.0965 145.819 25.7183C145.819 27.3401 146.306 28.6749 147.279 29.7229C148.277 30.7459 149.549 31.2574 151.096 31.2574ZM165.518 35V8.05303H170.309V35H165.518ZM177.786 13.5547C176.913 13.5547 176.189 13.2927 175.615 12.7688C175.066 12.2448 174.792 11.5836 174.792 10.7852C174.792 9.98673 175.066 9.338 175.615 8.83898C176.189 8.31502 176.913 8.05303 177.786 8.05303C178.659 8.05303 179.37 8.31502 179.919 8.83898C180.493 9.338 180.78 9.98673 180.78 10.7852C180.78 11.5836 180.493 12.2448 179.919 12.7688C179.37 13.2927 178.659 13.5547 177.786 13.5547ZM175.391 35V16.4365H180.181V35H175.391ZM194.276 35.4491C192.38 35.4491 190.708 35.0374 189.261 34.214C187.814 33.3907 186.666 32.2429 185.818 30.7708C184.994 29.2987 184.583 27.6145 184.583 25.7183C184.583 23.822 184.994 22.1378 185.818 20.6657C186.666 19.1936 187.814 18.0459 189.261 17.2225C190.708 16.3991 192.38 15.9874 194.276 15.9874C196.646 15.9874 198.643 16.6112 200.264 17.8587C201.886 19.0813 202.922 20.778 203.371 22.9487H198.318C198.069 22.0505 197.57 21.3519 196.821 20.8528C196.098 20.3289 195.237 20.0669 194.239 20.0669C192.916 20.0669 191.794 20.5659 190.87 21.5639C189.947 22.562 189.486 23.9468 189.486 25.7183C189.486 27.4898 189.947 28.8746 190.87 29.8726C191.794 30.8706 192.916 31.3696 194.239 31.3696C195.237 31.3696 196.098 31.1201 196.821 30.6211C197.57 30.1221 198.069 29.411 198.318 28.4878H203.371C202.922 30.5837 201.886 32.2679 200.264 33.5404C198.643 34.8129 196.646 35.4491 194.276 35.4491ZM209.681 35.262C208.808 35.262 208.084 34.9875 207.51 34.4386C206.962 33.8897 206.687 33.2285 206.687 32.455C206.687 31.6566 206.962 30.9829 207.51 30.434C208.084 29.8851 208.808 29.6106 209.681 29.6106C210.554 29.6106 211.266 29.8851 211.814 30.434C212.388 30.9829 212.675 31.6566 212.675 32.455C212.675 33.2285 212.388 33.8897 211.814 34.4386C211.266 34.9875 210.554 35.262 209.681 35.262Z" fill="white"/>
</svg>
